<?xml version="1.0" standalone="no"?><!DOCTYPE svg PUBLIC "-//W3C//DTD SVG 1.1//EN" "http://www.w3.org/Graphics/SVG/1.1/DTD/svg11.dtd"><svg t="1531898227647" class="icon" style="" viewBox="0 0 1024 1024" version="1.1" xmlns="http://www.w3.org/2000/svg" p-id="5499" xmlns:xlink="http://www.w3.org/1999/xlink" width="64" height="64"><defs><style type="text/css"></style></defs><path d="M358.4 141.1c16.2 0 30.1 5.6 41.7 16.8 11.6 11.2 17.3 24.9 17.3 41.2l0 233.8c0 16.2-5.7 30.1-17.3 41.7-11.6 11.6-25.4 17.3-41.7 17.3L124.6 491.9c-16.2 0-29.9-5.7-41.2-17.3-11.2-11.6-16.8-25.4-16.8-41.7L66.6 199.1c0-16.2 5.6-29.9 16.8-41.2 11.2-11.2 24.9-16.8 41.2-16.8L358.4 141.1 358.4 141.1zM358.4 608.7c16.2 0 30.1 5.6 41.7 16.8 11.6 11.2 17.3 24.9 17.3 41.2l0 234.8c0 16.2-5.7 29.9-17.3 41.2-11.6 11.2-25.4 16.8-41.7 16.8L124.6 959.5c-16.2 0-29.9-5.6-41.2-16.8s-16.8-24.9-16.8-41.2L66.6 666.7c0-16.2 5.6-29.9 16.8-41.2 11.2-11.3 24.9-16.8 41.2-16.8L358.4 608.7zM826.9 608.7c16.2 0 29.9 5.6 41.2 16.8 11.2 11.2 16.8 24.9 16.8 41.2l0 234.8c0 16.2-5.6 29.9-16.8 41.2-11.2 11.2-24.9 16.8-41.2 16.8L593.2 959.5c-16.2 0-30.1-5.6-41.7-16.8-11.6-11.2-17.3-24.9-17.3-41.2L534.2 666.7c0-16.2 5.7-29.9 17.3-41.2 11.6-11.2 25.4-16.8 41.7-16.8L826.9 608.7zM943.1 243.9c12.5 12.5 18.7 27.1 18.7 43.9 0 16.8-6.2 31.2-18.7 43.1l-174 174c-12.5 12.5-26.9 18.7-43.4 18.7s-31-6.2-43.4-18.7l-174-174c-11.9-11.9-17.8-26.2-17.8-43.1 0-16.8 5.9-31.5 17.8-43.9l173.9-173.9c12.5-11.9 26.9-17.8 43.4-17.8s31 5.9 43.4 17.8L943.1 243.9z" p-id="5500"></path></svg>